<?xml version="1.0" encoding="utf-8"?>
<svg viewBox="0 0 55.2632 55.2632" xmlns="http://www.w3.org/2000/svg">
  <g id="SvgjsG2157" featurekey="symbolFeature-0" transform="matrix(0.42510122060775757, 0, 0, 0.42510122060775757, -4.251012388631878, -4.251012388631878)" fill="#fff">
    <g xmlns="http://www.w3.org/2000/svg">
      <g>
        <path d="M134.4482422,10H15.5517578C12.4902344,10,10,12.574707,10,15.7392578c0,11.5635738,0,79.6619949,0,91.0810547    c0,3.1645508,2.4902344,5.7392578,5.5517578,5.7392578h43.0300903c1.046875,5.9559326,0.1983032,10.6835327-2.9335938,16.4643555    C50.8857422,129.692688,47.2304688,133.9589844,47.2304688,139c0,0.5522461,0.4472656,1,1,1h47.9853516    c2.6923523,0,0.3573685-9.8955078-7.4401855-10.9784546c-3.1195068-5.7990723-3.9648438-10.5263062-2.9228516-16.4619751    h48.595459c3.0615234,0,5.5517578-2.574707,5.5517578-5.7392578c0-11.4340363,0-79.5542755,0-91.0810547    C140,12.574707,137.5097656,10,134.4482422,10z M95.1572266,138H49.2900391    c0.4501953-3.75,3.3945313-6.7646484,7.0537109-7.0532227c0.8162117-0.046463-1.4491959-0.0106354,31.1552734-0.0224609    C91.3667908,130.9243164,94.6803741,133.9333649,95.1572266,138z M86.4638672,128.9243164H57.9648438    c2.8632813-5.6464844,3.6357422-10.4453125,2.6513672-16.3647461h23.2021484    C82.8378906,118.4619141,83.609375,123.2602539,86.4638672,128.9243164z M138,106.8203125    c0,2.0620117-1.59375,3.7392578-3.5517578,3.7392578H85.0185547H59.4160156H15.5517578    C13.59375,110.5595703,12,108.8823242,12,106.8203125v-6.1088867h126V106.8203125z M138,98.7114258H12V28.5874023h126V98.7114258z     M138,26.5874023H12V15.7392578C12,13.6772461,13.59375,12,15.5517578,12h118.8964844C136.40625,12,138,13.6772461,138,15.7392578    V26.5874023z"/>
      </g>
      <g>
        <path d="M129.8964844,18.2939453h-4.8359375c-0.5527344,0-1,0.4477539-1,1s0.4472656,1,1,1h4.8359375c0.5527344,0,1-0.4477539,1-1    S130.4492188,18.2939453,129.8964844,18.2939453z"/>
      </g>
      <g>
        <path d="M117.0957031,18.2939453h-4.8359375c-0.5527344,0-1,0.4477539-1,1s0.4472656,1,1,1h4.8359375c0.5527344,0,1-0.4477539,1-1    S117.6484375,18.2939453,117.0957031,18.2939453z"/>
      </g>
      <g>
        <path d="M104.2949219,18.2939453h-4.8369141c-0.5527344,0-1,0.4477539-1,1s0.4472656,1,1,1h4.8369141c0.5527344,0,1-0.4477539,1-1    S104.8476563,18.2939453,104.2949219,18.2939453z"/>
      </g>
      <g>
        <path d="M90.3554688,18.2939453H20.1035156c-0.5527344,0-1,0.4477539-1,1s0.4472656,1,1,1h70.2519531c0.5527344,0,1-0.4477539,1-1    S90.9082031,18.2939453,90.3554688,18.2939453z"/>
      </g>
      <g>
        <path d="M38.2597656,35.5458984h7.2480469l2.0888062,6.685791l8.2449341,32.2334595    c-2.4052124,0.3464966-4.2683105,2.4626465-4.2683105,5.0407104c0,2.8188477,2.2197266,5.1118164,4.9492188,5.1118164h0.5246582    c-0.6834106,0.8410034-1.1115723,1.9102783-1.1115723,3.0913086c0,2.6811523,2.1025391,4.862793,4.6865234,4.862793    c2.5966797,0,4.7099609-2.1816406,4.7099609-4.862793c0-1.1810303-0.4303589-2.2503052-1.1171875-3.0913086H83.661377    c-0.6833496,0.8410034-1.1115723,1.9102783-1.1115723,3.0913086c0,2.6811523,2.1025391,4.862793,4.6865234,4.862793    c2.5966797,0,4.7099609-2.1816406,4.7099609-4.862793c0-1.1810303-0.4304199-2.2503052-1.1171875-3.0913086h4.6015625    c0.5527344,0,1-0.4477539,1-1s-0.4472656-1-1-1H56.5224609c-1.6259766,0-2.9492188-1.3959961-2.9492188-3.1118164    s1.3232422-3.1118164,2.9492188-3.1118164c10.4912186,0,30.9495697,0,41.3457031,0    c0.1271973,0,0.2471924-0.0286255,0.3603516-0.0727539c0.0380859-0.0148315,0.0693359-0.0378418,0.1049805-0.0570068    c0.0704346-0.0377808,0.1364746-0.0788574,0.1959229-0.1320801c0.0343018-0.0306396,0.0621338-0.0641479,0.0919189-0.0992432    c0.0478516-0.0562134,0.0882568-0.1158447,0.1230469-0.182373c0.0224609-0.0430908,0.0419922-0.085144,0.0583496-0.1316528    c0.0093994-0.0269775,0.0269775-0.0491943,0.0341797-0.0773315c8.8137054-35.0527115,8.9423065-33.5539398,8.3710938-34.2900391    c-0.1894531-0.2441406-0.4814453-0.3867188-0.7900391-0.3867188H49.2954712    c-2.1321716-6.0495682-1.7592163-7.4189453-3.0523071-7.4189453c-6.5200539,0.3249741-8.9833984-0.7559929-8.9833984,1    C37.2597656,35.0981445,37.7070313,35.5458984,38.2597656,35.5458984z M87.2363281,84.8701172    c1.4941406,0,2.7099609,1.2734375,2.7099609,2.8388672c0,1.5786133-1.2158203,2.862793-2.7099609,2.862793    c-1.4814453,0-2.6865234-1.2841797-2.6865234-2.862793C84.5498047,86.1435547,85.7548828,84.8701172,87.2363281,84.8701172z     M63.3320313,87.7089844c0,3.7704468-5.3964844,3.803566-5.3964844,0    C57.9355469,86.1435547,63.3320313,83.9710693,63.3320313,87.7089844z M57.8876953,74.394043l-2.2722168-8.8833008h5.6567383    l1.116272,8.8833008H57.8876953z M81.1906738,74.394043h-7.3959961l-0.3720703-8.8833008h8.1401367L81.1906738,74.394043z     M81.6464844,63.5107422h-8.3076782l-0.4050293-9.6699219h9.1177368L81.6464844,63.5107422z M97.0917969,74.394043h-4.494873    l1.1162109-8.8833008h5.6506348L97.0917969,74.394043z M96.5462646,42.9648438h8.5836182l-2.2700195,8.8759766h-7.4289551    L96.5462646,42.9648438z M102.3483887,53.8408203l-2.4731445,9.6699219h-5.9107666l1.2150879-9.6699219H102.3483887z     M84.5087891,42.9648438h10.0217285l-1.1152344,8.8759766h-9.2783203L84.5087891,42.9648438z M84.0532227,53.8408203h9.1105957    l-1.2150879,9.6699219h-8.3005371L84.0532227,53.8408203z M83.5643311,65.5107422h8.1331787l-1.116333,8.8833008h-7.388916    L83.5643311,65.5107422z M82.5070801,42.9648438l-0.3717041,8.8759766h-9.2854004l-0.3717651-8.8759766H82.5070801z     M71.7930908,74.394043h-7.388916l-1.116272-8.8833008h8.1331177L71.7930908,74.394043z M71.3372192,63.5107422h-8.3006592    l-1.2150879-9.6699219h9.1107178L71.3372192,63.5107422z M70.4766235,42.9648438l0.3718262,8.8759766h-9.2783203    l-1.1153564-8.8759766H70.4766235z M61.020874,63.5107422h-5.9169312l-2.4733887-9.6699219h7.1752319L61.020874,63.5107422z     M58.4390869,42.9648438l1.1153564,8.8759766h-7.4354858l-2.2703247-8.8759766H58.4390869z"/>
      </g>
    </g>
  </g>
</svg>