<svg width="378.1699920654297" height="56.523628707288424"
  viewBox="0 0 369.7368421052631 55.263157894736835" class="css-1j8o68f">
  <defs id="SvgjsDefs2156"></defs>
  <g id="SvgjsG2157" featurekey="symbolFeature-0"
    transform="matrix(0.42510121457489874,0,0,0.42510121457489874,-4.251012145748987,-4.251012145748987)"
    fill="#080808">
    <g xmlns="http://www.w3.org/2000/svg">
      <g>
        <path
          d="M134.4482422,10H15.5517578C12.4902344,10,10,12.574707,10,15.7392578c0,11.5635738,0,79.6619949,0,91.0810547    c0,3.1645508,2.4902344,5.7392578,5.5517578,5.7392578h43.0300903c1.046875,5.9559326,0.1983032,10.6835327-2.9335938,16.4643555    C50.8857422,129.692688,47.2304688,133.9589844,47.2304688,139c0,0.5522461,0.4472656,1,1,1h47.9853516    c2.6923523,0,0.3573685-9.8955078-7.4401855-10.9784546c-3.1195068-5.7990723-3.9648438-10.5263062-2.9228516-16.4619751    h48.595459c3.0615234,0,5.5517578-2.574707,5.5517578-5.7392578c0-11.4340363,0-79.5542755,0-91.0810547    C140,12.574707,137.5097656,10,134.4482422,10z M95.1572266,138H49.2900391    c0.4501953-3.75,3.3945313-6.7646484,7.0537109-7.0532227c0.8162117-0.046463-1.4491959-0.0106354,31.1552734-0.0224609    C91.3667908,130.9243164,94.6803741,133.9333649,95.1572266,138z M86.4638672,128.9243164H57.9648438    c2.8632813-5.6464844,3.6357422-10.4453125,2.6513672-16.3647461h23.2021484    C82.8378906,118.4619141,83.609375,123.2602539,86.4638672,128.9243164z M138,106.8203125    c0,2.0620117-1.59375,3.7392578-3.5517578,3.7392578H85.0185547H59.4160156H15.5517578    C13.59375,110.5595703,12,108.8823242,12,106.8203125v-6.1088867h126V106.8203125z M138,98.7114258H12V28.5874023h126V98.7114258z     M138,26.5874023H12V15.7392578C12,13.6772461,13.59375,12,15.5517578,12h118.8964844C136.40625,12,138,13.6772461,138,15.7392578    V26.5874023z"></path>
      </g>
      <g>
        <path
          d="M129.8964844,18.2939453h-4.8359375c-0.5527344,0-1,0.4477539-1,1s0.4472656,1,1,1h4.8359375c0.5527344,0,1-0.4477539,1-1    S130.4492188,18.2939453,129.8964844,18.2939453z"></path>
      </g>
      <g>
        <path
          d="M117.0957031,18.2939453h-4.8359375c-0.5527344,0-1,0.4477539-1,1s0.4472656,1,1,1h4.8359375c0.5527344,0,1-0.4477539,1-1    S117.6484375,18.2939453,117.0957031,18.2939453z"></path>
      </g>
      <g>
        <path
          d="M104.2949219,18.2939453h-4.8369141c-0.5527344,0-1,0.4477539-1,1s0.4472656,1,1,1h4.8369141c0.5527344,0,1-0.4477539,1-1    S104.8476563,18.2939453,104.2949219,18.2939453z"></path>
      </g>
      <g>
        <path
          d="M90.3554688,18.2939453H20.1035156c-0.5527344,0-1,0.4477539-1,1s0.4472656,1,1,1h70.2519531c0.5527344,0,1-0.4477539,1-1    S90.9082031,18.2939453,90.3554688,18.2939453z"></path>
      </g>
      <g>
        <path
          d="M38.2597656,35.5458984h7.2480469l2.0888062,6.685791l8.2449341,32.2334595    c-2.4052124,0.3464966-4.2683105,2.4626465-4.2683105,5.0407104c0,2.8188477,2.2197266,5.1118164,4.9492188,5.1118164h0.5246582    c-0.6834106,0.8410034-1.1115723,1.9102783-1.1115723,3.0913086c0,2.6811523,2.1025391,4.862793,4.6865234,4.862793    c2.5966797,0,4.7099609-2.1816406,4.7099609-4.862793c0-1.1810303-0.4303589-2.2503052-1.1171875-3.0913086H83.661377    c-0.6833496,0.8410034-1.1115723,1.9102783-1.1115723,3.0913086c0,2.6811523,2.1025391,4.862793,4.6865234,4.862793    c2.5966797,0,4.7099609-2.1816406,4.7099609-4.862793c0-1.1810303-0.4304199-2.2503052-1.1171875-3.0913086h4.6015625    c0.5527344,0,1-0.4477539,1-1s-0.4472656-1-1-1H56.5224609c-1.6259766,0-2.9492188-1.3959961-2.9492188-3.1118164    s1.3232422-3.1118164,2.9492188-3.1118164c10.4912186,0,30.9495697,0,41.3457031,0    c0.1271973,0,0.2471924-0.0286255,0.3603516-0.0727539c0.0380859-0.0148315,0.0693359-0.0378418,0.1049805-0.0570068    c0.0704346-0.0377808,0.1364746-0.0788574,0.1959229-0.1320801c0.0343018-0.0306396,0.0621338-0.0641479,0.0919189-0.0992432    c0.0478516-0.0562134,0.0882568-0.1158447,0.1230469-0.182373c0.0224609-0.0430908,0.0419922-0.085144,0.0583496-0.1316528    c0.0093994-0.0269775,0.0269775-0.0491943,0.0341797-0.0773315c8.8137054-35.0527115,8.9423065-33.5539398,8.3710938-34.2900391    c-0.1894531-0.2441406-0.4814453-0.3867188-0.7900391-0.3867188H49.2954712    c-2.1321716-6.0495682-1.7592163-7.4189453-3.0523071-7.4189453c-6.5200539,0.3249741-8.9833984-0.7559929-8.9833984,1    C37.2597656,35.0981445,37.7070313,35.5458984,38.2597656,35.5458984z M87.2363281,84.8701172    c1.4941406,0,2.7099609,1.2734375,2.7099609,2.8388672c0,1.5786133-1.2158203,2.862793-2.7099609,2.862793    c-1.4814453,0-2.6865234-1.2841797-2.6865234-2.862793C84.5498047,86.1435547,85.7548828,84.8701172,87.2363281,84.8701172z     M63.3320313,87.7089844c0,3.7704468-5.3964844,3.803566-5.3964844,0    C57.9355469,86.1435547,63.3320313,83.9710693,63.3320313,87.7089844z M57.8876953,74.394043l-2.2722168-8.8833008h5.6567383    l1.116272,8.8833008H57.8876953z M81.1906738,74.394043h-7.3959961l-0.3720703-8.8833008h8.1401367L81.1906738,74.394043z     M81.6464844,63.5107422h-8.3076782l-0.4050293-9.6699219h9.1177368L81.6464844,63.5107422z M97.0917969,74.394043h-4.494873    l1.1162109-8.8833008h5.6506348L97.0917969,74.394043z M96.5462646,42.9648438h8.5836182l-2.2700195,8.8759766h-7.4289551    L96.5462646,42.9648438z M102.3483887,53.8408203l-2.4731445,9.6699219h-5.9107666l1.2150879-9.6699219H102.3483887z     M84.5087891,42.9648438h10.0217285l-1.1152344,8.8759766h-9.2783203L84.5087891,42.9648438z M84.0532227,53.8408203h9.1105957    l-1.2150879,9.6699219h-8.3005371L84.0532227,53.8408203z M83.5643311,65.5107422h8.1331787l-1.116333,8.8833008h-7.388916    L83.5643311,65.5107422z M82.5070801,42.9648438l-0.3717041,8.8759766h-9.2854004l-0.3717651-8.8759766H82.5070801z     M71.7930908,74.394043h-7.388916l-1.116272-8.8833008h8.1331177L71.7930908,74.394043z M71.3372192,63.5107422h-8.3006592    l-1.2150879-9.6699219h9.1107178L71.3372192,63.5107422z M70.4766235,42.9648438l0.3718262,8.8759766h-9.2783203    l-1.1153564-8.8759766H70.4766235z M61.020874,63.5107422h-5.9169312l-2.4733887-9.6699219h7.1752319L61.020874,63.5107422z     M58.4390869,42.9648438l1.1153564,8.8759766h-7.4354858l-2.2703247-8.8759766H58.4390869z"></path>
      </g>
    </g>
  </g>
  <g id="SvgjsG2158" featurekey="nameFeature-0"
    transform="matrix(1.3604912397350084,0,0,1.3604912397350084,71.95249928565254,-9.012901107768673)"
    fill="#000000">
    <path
      d="M12.76 23.8 c3.04 1.44 7 3.72 7 7.84 c0 1.2 -0.2 3.52 -1.52 5.48 c-1.48 2.2 -3.8 3.28 -7 3.28 c-3.4 0 -7.36 -1.64 -8.6 -5.36 c-0.04 -0.12 0 -0.24 0.12 -0.32 l3.68 -3.16 c0.16 -0.12 0.4 -0.12 0.52 0.08 c0.08 0.2 0.24 0.52 0.44 0.92 c0.6 1.24 2.04 2.48 3.64 2.48 c1.24 0 2.92 -0.68 2.92 -2.6 c0 -1.84 -2.52 -2.88 -4.08 -3.48 c-1.8 -0.72 -3.64 -1.64 -5.2 -3 c-1.64 -1.52 -2.44 -3.2 -2.44 -5.2 c0 -5 4.6 -7.52 8.96 -7.52 c3.44 0 6 1.8 7.68 5.36 c0.08 0.16 0 0.36 -0.12 0.44 l-3.56 2.48 c-0.16 0.08 -0.24 0.08 -0.4 -0.12 c-1.36 -1.96 -2.56 -2.88 -4.16 -2.88 c-0.84 0 -2.8 0.32 -2.8 1.8 c0 1.8 3.32 2.72 4.92 3.48 z M5.48 34.84 c1 2 3.76 3.16 6 3.16 c2.92 0 5.28 -2 5.6 -5.04 c0.4 -3.72 -2.52 -5.32 -5.4 -6.76 l-1.28 -0.56 c-2.96 -1.32 -5.12 -2.32 -5.12 -5.08 c0 -3.04 2.8 -4.44 5.56 -4.44 c2.52 0 3.84 1.48 4.52 2.4 c0.24 0.32 0.64 0.04 0.4 -0.28 c-0.68 -0.84 -2.12 -2.6 -4.92 -2.6 c-3.16 0 -6.04 1.56 -6.04 4.92 c0 3 2.4 4.16 5.44 5.56 l1.24 0.6 c3.96 1.88 5.4 3.64 5.08 6.2 c-0.6 4.08 -3.72 4.6 -5.08 4.6 c-3 0 -5 -1.8 -5.6 -2.92 c-0.2 -0.2 -0.48 0 -0.4 0.24 z M37.480000000000004 24 l0 -10.04 c0 -0.2 0.16 -0.36 0.36 -0.36 l4.56 0 c0.2 0 0.36 0.16 0.36 0.36 l0 25.68 c0 0.2 -0.16 0.36 -0.36 0.36 l-4.56 0 c-0.2 0 -0.36 -0.16 -0.36 -0.36 l0 -10.64 l-6.48 0 l0 10.64 c0 0.2 -0.16 0.36 -0.36 0.36 l-4.56 0 c-0.2 0 -0.32 -0.16 -0.32 -0.36 l0 -25.68 c0 -0.2 0.12 -0.36 0.32 -0.36 l4.56 0 c0.2 0 0.36 0.16 0.36 0.36 l0 10.04 l6.48 0 z M28.08 37.52 c0 0.32 0.52 0.28 0.52 0 l0 -10.72 l11.24 0 l0 10.72 c0 0.28 0.44 0.32 0.44 0 l0 -21.52 c0 -0.28 -0.44 -0.36 -0.44 0 l0 10.24 l-11.24 0 l0 -10.24 c0 -0.28 -0.52 -0.28 -0.52 0 l0 21.52 z M58.92 13.239999999999998 c3.44 0 5.84 0.76 7.36 2.4 c1.2 1.32 1.76 3.2 1.76 5.88 l0 10.52 c0 2.76 -0.56 4.68 -1.76 5.96 c-1.56 1.6 -3.92 2.4 -7.36 2.4 c-3.56 0 -5.88 -0.8 -7.4 -2.4 c-1.16 -1.28 -1.8 -3.2 -1.8 -5.96 l0 -10.52 c0 -2.68 0.64 -4.56 1.8 -5.92 c1.56 -1.6 3.92 -2.36 7.4 -2.36 z M62.72 30.84 l0 -8 c0 -3.52 -1.88 -4.24 -3.6 -4.24 l-0.48 0 c-2.56 0 -3.56 1.64 -3.56 4.24 l0 8 c0 3.52 1.88 4.28 3.56 4.28 l0.48 0 c2.56 0 3.56 -1.72 3.6 -4.28 z M52.24 21.8 l0 9.92 c0 1.88 0.48 3.44 1.6 4.6 c1.04 1.04 2.64 1.6 4.6 1.6 l1.04 0 c3.76 0 6.2 -2.4 6.2 -6.2 l0 -9.92 c0 -4.08 -2.16 -6.28 -6.2 -6.28 l-1.04 0 c-4.08 0 -6.2 2.2 -6.2 6.28 z M59.480000000000004 37.4 l-1.04 0 c-1.88 0 -3.28 -0.48 -4.28 -1.48 s-1.52 -2.4 -1.52 -4.2 l0 -9.92 c0 -3.8 2.04 -5.8 5.8 -5.8 l1.04 0 c3.8 0 5.68 1.96 5.68 5.8 l0 9.92 c0 1.68 -0.52 3.2 -1.6 4.24 c-1.04 0.88 -2.44 1.44 -4.08 1.44 z M83.64 13.600000000000001 c4.44 0 7.12 2.52 7.12 7.2 l0 5.04 c0 4.28 -2.64 7.16 -7.12 7.16 l-3.36 0 l0 6.64 c0 0.2 -0.16 0.36 -0.36 0.36 l-4.6 0 c-0.16 0 -0.28 -0.16 -0.28 -0.36 l0 -25.68 c0 -0.2 0.12 -0.36 0.28 -0.36 l8.32 0 z M85.52 24.64 l0 -2.64 c0 -2.76 -1.28 -3.04 -4.08 -3.04 l-1.16 0 l0 8.8 l1.16 0 c2.2 0 4.08 -0.4 4.08 -3.12 z M88.36 25.560000000000002 l0 -5 c0 -4.4 -3.4 -4.76 -5.24 -4.76 l-5.4 0 c-0.08 0 -0.24 0.12 -0.24 0.24 l0 21.52 c0 0.28 0.48 0.28 0.48 0 l0 -6.8 l4.8 0 c3.52 0 5.6 -1.24 5.6 -5.2 z M77.96000000000001 16.32 l5.16 0 c4.44 0 4.72 2.92 4.72 4.24 l0 5 c0 4.08 -2.56 4.64 -5.08 4.64 l-4.8 0 l0 -13.88 z M96.72 40 c-0.2 0 -0.32 -0.16 -0.32 -0.36 l0 -25.68 c0 -0.2 0.12 -0.36 0.32 -0.36 l13.6 0 c0.2 0 0.36 0.16 0.36 0.36 l0 4.28 c0 0.2 -0.16 0.36 -0.36 0.36 l-8.64 0 l0 5.44 l6.72 0 c0.2 0 0.32 0.16 0.32 0.36 l0 4.36 c0 0.2 -0.12 0.36 -0.32 0.36 l-6.72 0 l0 5.88 l8.64 0 c0.2 0 0.36 0.16 0.36 0.36 l0 4.28 c0 0.2 -0.16 0.36 -0.36 0.36 l-13.6 0 z M98.72 16.12 l0 21.28 c0 0.24 0.16 0.32 0.32 0.32 l9.2 0 c0.36 0 0.28 -0.48 0 -0.48 l-9 0 l0 -10.44 l7.36 0 c0.24 0 0.24 -0.56 0 -0.56 l-7.36 0 l0 -9.92 l9 0 c0.28 0 0.36 -0.52 0 -0.52 l-9.2 0 c-0.16 0 -0.32 0.12 -0.32 0.32 z M117.76 40 c-0.2 0 -0.32 -0.16 -0.32 -0.36 l0 -25.68 c0 -0.2 0.12 -0.36 0.32 -0.36 l13.6 0 c0.2 0 0.36 0.16 0.36 0.36 l0 4.28 c0 0.2 -0.16 0.36 -0.36 0.36 l-8.64 0 l0 5.44 l6.72 0 c0.2 0 0.32 0.16 0.32 0.36 l0 4.36 c0 0.2 -0.12 0.36 -0.32 0.36 l-6.72 0 l0 5.88 l8.64 0 c0.2 0 0.36 0.16 0.36 0.36 l0 4.28 c0 0.2 -0.16 0.36 -0.36 0.36 l-13.6 0 z M119.76 16.12 l0 21.28 c0 0.24 0.16 0.32 0.32 0.32 l9.2 0 c0.36 0 0.28 -0.48 0 -0.48 l-9 0 l0 -10.44 l7.36 0 c0.24 0 0.24 -0.56 0 -0.56 l-7.36 0 l0 -9.92 l9 0 c0.28 0 0.36 -0.52 0 -0.52 l-9.2 0 c-0.16 0 -0.32 0.12 -0.32 0.32 z M140.88 16 l0 21.56 c0 0.28 0.48 0.36 0.48 0 l0 -10.76 l7.36 0 c0.4 0 0.4 -0.56 0 -0.56 l-7.36 0 l0 -9.92 l8.96 0 c0.28 0 0.36 -0.52 0 -0.52 l-9.2 0 c-0.12 0 -0.24 0.04 -0.24 0.2 z M143.4 40 l-4.6 0 c-0.2 0 -0.32 -0.16 -0.32 -0.36 l0 -25.68 c0 -0.2 0.12 -0.36 0.32 -0.36 l13.6 0 c0.2 0 0.36 0.16 0.36 0.36 l0 4.28 c0 0.2 -0.16 0.36 -0.36 0.36 l-8.64 0 l0 5.44 l6.72 0 c0.2 0 0.32 0.16 0.32 0.36 l0 4.36 c0 0.2 -0.12 0.36 -0.32 0.36 l-6.72 0 l0 10.52 c0 0.2 -0.16 0.36 -0.36 0.36 z M163.35999999999999 13.84 c0.04 -0.12 0.12 -0.24 0.28 -0.24 l4.96 0 c0.16 0 0.24 0.12 0.28 0.24 l6.92 25.72 c0.04 0.24 -0.12 0.44 -0.36 0.44 l-4.56 0 c-0.12 0 -0.24 -0.08 -0.28 -0.24 l-1.56 -5.6 l-5.84 0 l-1.52 5.6 c-0.04 0.16 -0.12 0.24 -0.28 0.24 l-4.6 0 c-0.24 0 -0.4 -0.2 -0.36 -0.44 z M164.48 29.2 l3.32 0 l-1.72 -6.04 z M170.64 31.560000000000002 l1.84 6 c0.08 0.24 0.52 0.2 0.4 -0.12 l-6.4 -21.28 c-0.12 -0.52 -0.8 -0.56 -0.92 0 l-6.2 21.28 c-0.12 0.28 0.32 0.4 0.44 0.16 l1.76 -6.04 l9.08 0 z M161.68 31.04 l4.36 -14.72 l4.44 14.72 l-8.8 0 z M190.39999999999998 23.8 c3.04 1.44 7 3.72 7 7.84 c0 1.2 -0.2 3.52 -1.52 5.48 c-1.48 2.2 -3.8 3.28 -7 3.28 c-3.4 0 -7.36 -1.64 -8.6 -5.36 c-0.04 -0.12 0 -0.24 0.12 -0.32 l3.68 -3.16 c0.16 -0.12 0.4 -0.12 0.52 0.08 c0.08 0.2 0.24 0.52 0.44 0.92 c0.6 1.24 2.04 2.48 3.64 2.48 c1.24 0 2.92 -0.68 2.92 -2.6 c0 -1.84 -2.52 -2.88 -4.08 -3.48 c-1.8 -0.72 -3.64 -1.64 -5.2 -3 c-1.64 -1.52 -2.44 -3.2 -2.44 -5.2 c0 -5 4.6 -7.52 8.96 -7.52 c3.44 0 6 1.8 7.68 5.36 c0.08 0.16 0 0.36 -0.12 0.44 l-3.56 2.48 c-0.16 0.08 -0.24 0.08 -0.4 -0.12 c-1.36 -1.96 -2.56 -2.88 -4.16 -2.88 c-0.84 0 -2.8 0.32 -2.8 1.8 c0 1.8 3.32 2.72 4.92 3.48 z M183.11999999999998 34.84 c1 2 3.76 3.16 6 3.16 c2.92 0 5.28 -2 5.6 -5.04 c0.4 -3.72 -2.52 -5.32 -5.4 -6.76 l-1.28 -0.56 c-2.96 -1.32 -5.12 -2.32 -5.12 -5.08 c0 -3.04 2.8 -4.44 5.56 -4.44 c2.52 0 3.84 1.48 4.52 2.4 c0.24 0.32 0.64 0.04 0.4 -0.28 c-0.68 -0.84 -2.12 -2.6 -4.92 -2.6 c-3.16 0 -6.04 1.56 -6.04 4.92 c0 3 2.4 4.16 5.44 5.56 l1.24 0.6 c3.96 1.88 5.4 3.64 5.08 6.2 c-0.6 4.08 -3.72 4.6 -5.08 4.6 c-3 0 -5 -1.8 -5.6 -2.92 c-0.2 -0.2 -0.48 0 -0.4 0.24 z M207.51999999999998 18.6 l-5.68 0 c-0.2 0 -0.36 -0.16 -0.36 -0.36 l0 -4.28 c0 -0.2 0.16 -0.36 0.36 -0.36 l16.68 0 c0.2 0 0.36 0.16 0.36 0.36 l0 4.28 c0 0.2 -0.16 0.36 -0.36 0.36 l-5.68 0 l0 21.04 c0 0.2 -0.16 0.36 -0.36 0.36 l-4.6 0 c-0.2 0 -0.36 -0.16 -0.36 -0.36 l0 -21.04 z M216.07999999999998 15.8 l-12.08 0 c-0.28 0 -0.28 0.52 0 0.52 l5.92 0 l0 21.2 c0 0.28 0.52 0.28 0.52 0 l0 -21.2 l5.64 0 c0.4 0 0.36 -0.52 0 -0.52 z"></path>
  </g>
</svg>